<svg aria-roledescription="er" role="graphics-document document" viewBox="0 0 418.9765625 218" style="max-width: 100%;" xmlns="http://www.w3.org/2000/svg" width="100%" id="graph-div" height="100%" xmlns:xlink="http://www.w3.org/1999/xlink"><style>@import url("https://cdnjs.cloudflare.com/ajax/libs/font-awesome/6.4.0/css/all.min.css");'</style><style>#graph-div{font-family:"trebuchet ms",verdana,arial,sans-serif;font-size:16px;fill:#333;}#graph-div .error-icon{fill:#552222;}#graph-div .error-text{fill:#552222;stroke:#552222;}#graph-div .edge-thickness-normal{stroke-width:2px;}#graph-div .edge-thickness-thick{stroke-width:3.5px;}#graph-div .edge-pattern-solid{stroke-dasharray:0;}#graph-div .edge-pattern-dashed{stroke-dasharray:3;}#graph-div .edge-pattern-dotted{stroke-dasharray:2;}#graph-div .marker{fill:#333333;stroke:#333333;}#graph-div .marker.cross{stroke:#333333;}#graph-div svg{font-family:"trebuchet ms",verdana,arial,sans-serif;font-size:16px;}#graph-div .entityBox{fill:#ECECFF;stroke:#9370DB;}#graph-div .attributeBoxOdd{fill:#ffffff;stroke:#9370DB;}#graph-div .attributeBoxEven{fill:#f2f2f2;stroke:#9370DB;}#graph-div .relationshipLabelBox{fill:hsl(80, 100%, 96.2745098039%);opacity:0.7;background-color:hsl(80, 100%, 96.2745098039%);}#graph-div .relationshipLabelBox rect{opacity:0.5;}#graph-div .relationshipLine{stroke:#333333;}#graph-div .entityTitleText{text-anchor:middle;font-size:18px;fill:#333;}#graph-div #MD_PARENT_START{fill:#f5f5f5!important;stroke:#333333!important;stroke-width:1;}#graph-div #MD_PARENT_END{fill:#f5f5f5!important;stroke:#333333!important;stroke-width:1;}#graph-div :root{--mermaid-font-family:"trebuchet ms",verdana,arial,sans-serif;}</style><g></g><defs><marker orient="auto" markerHeight="240" markerWidth="190" refY="7" refX="0" id="MD_PARENT_START"><path d="M 18,7 L9,13 L1,7 L9,1 Z"></path></marker></defs><defs><marker orient="auto" markerHeight="28" markerWidth="20" refY="7" refX="19" id="MD_PARENT_END"><path d="M 18,7 L9,13 L1,7 L9,1 Z"></path></marker></defs><defs><marker orient="auto" markerHeight="18" markerWidth="18" refY="9" refX="0" id="ONLY_ONE_START"><path d="M9,0 L9,18 M15,0 L15,18" fill="none" stroke="gray"></path></marker></defs><defs><marker orient="auto" markerHeight="18" markerWidth="18" refY="9" refX="18" id="ONLY_ONE_END"><path d="M3,0 L3,18 M9,0 L9,18" fill="none" stroke="gray"></path></marker></defs><defs><marker orient="auto" markerHeight="18" markerWidth="30" refY="9" refX="0" id="ZERO_OR_ONE_START"><circle r="6" cy="9" cx="21" fill="white" stroke="gray"></circle><path d="M9,0 L9,18" fill="none" stroke="gray"></path></marker></defs><defs><marker orient="auto" markerHeight="18" markerWidth="30" refY="9" refX="30" id="ZERO_OR_ONE_END"><circle r="6" cy="9" cx="9" fill="white" stroke="gray"></circle><path d="M21,0 L21,18" fill="none" stroke="gray"></path></marker></defs><defs><marker orient="auto" markerHeight="36" markerWidth="45" refY="18" refX="18" id="ONE_OR_MORE_START"><path d="M0,18 Q 18,0 36,18 Q 18,36 0,18 M42,9 L42,27" fill="none" stroke="gray"></path></marker></defs><defs><marker orient="auto" markerHeight="36" markerWidth="45" refY="18" refX="27" id="ONE_OR_MORE_END"><path d="M3,9 L3,27 M9,18 Q27,0 45,18 Q27,36 9,18" fill="none" stroke="gray"></path></marker></defs><defs><marker orient="auto" markerHeight="36" markerWidth="57" refY="18" refX="18" id="ZERO_OR_MORE_START"><circle r="6" cy="18" cx="48" fill="white" stroke="gray"></circle><path d="M0,18 Q18,0 36,18 Q18,36 0,18" fill="none" stroke="gray"></path></marker></defs><defs><marker orient="auto" markerHeight="36" markerWidth="57" refY="18" refX="39" id="ZERO_OR_MORE_END"><circle r="6" cy="18" cx="9" fill="white" stroke="gray"></circle><path d="M21,18 Q39,0 57,18 Q39,36 21,18" fill="none" stroke="gray"></path></marker></defs><g transform="translate(20,20 )" id="entity-WALLOWARAWDATA-55aedd13-a8b0-53f2-9b90-7f6000352d0c"><rect height="178" width="144.703125" y="0" x="0" class="er entityBox"></rect><text transform="translate(72.3515625,12)" style="dominant-baseline: middle; text-anchor: middle; font-size: 12px;" y="0" x="0" id="text-entity-WALLOWARAWDATA-55aedd13-a8b0-53f2-9b90-7f6000352d0c" class="er entityLabel">WALLOWA_RAW_DATA</text><rect height="22" width="68.91015625" y="24" x="0" class="er attributeBoxOdd"></rect><text transform="translate(5,35)" style="dominant-baseline: middle; font-size: 10.2px;" y="0" x="0" id="text-entity-WALLOWARAWDATA-55aedd13-a8b0-53f2-9b90-7f6000352d0c-attr-1-type" class="er entityLabel">int</text><rect height="22" width="75.79296875" y="24" x="68.91015625" class="er attributeBoxOdd"></rect><text transform="translate(73.91015625,35)" style="dominant-baseline: middle; font-size: 10.2px;" y="0" x="0" id="text-entity-WALLOWARAWDATA-55aedd13-a8b0-53f2-9b90-7f6000352d0c-attr-1-name" class="er entityLabel">id</text><rect height="22" width="68.91015625" y="46" x="0" class="er attributeBoxEven"></rect><text transform="translate(5,57)" style="dominant-baseline: middle; font-size: 10.2px;" y="0" x="0" id="text-entity-WALLOWARAWDATA-55aedd13-a8b0-53f2-9b90-7f6000352d0c-attr-2-type" class="er entityLabel">timestamp</text><rect height="22" width="75.79296875" y="46" x="68.91015625" class="er attributeBoxEven"></rect><text transform="translate(73.91015625,57)" style="dominant-baseline: middle; font-size: 10.2px;" y="0" x="0" id="text-entity-WALLOWARAWDATA-55aedd13-a8b0-53f2-9b90-7f6000352d0c-attr-2-name" class="er entityLabel">created_at</text><rect height="22" width="68.91015625" y="68" x="0" class="er attributeBoxOdd"></rect><text transform="translate(5,79)" style="dominant-baseline: middle; font-size: 10.2px;" y="0" x="0" id="text-entity-WALLOWARAWDATA-55aedd13-a8b0-53f2-9b90-7f6000352d0c-attr-3-type" class="er entityLabel">timestamp</text><rect height="22" width="75.79296875" y="68" x="68.91015625" class="er attributeBoxOdd"></rect><text transform="translate(73.91015625,79)" style="dominant-baseline: middle; font-size: 10.2px;" y="0" x="0" id="text-entity-WALLOWARAWDATA-55aedd13-a8b0-53f2-9b90-7f6000352d0c-attr-3-name" class="er entityLabel">loaded_at</text><rect height="22" width="68.91015625" y="90" x="0" class="er attributeBoxEven"></rect><text transform="translate(5,101)" style="dominant-baseline: middle; font-size: 10.2px;" y="0" x="0" id="text-entity-WALLOWARAWDATA-55aedd13-a8b0-53f2-9b90-7f6000352d0c-attr-4-type" class="er entityLabel">string</text><rect height="22" width="75.79296875" y="90" x="68.91015625" class="er attributeBoxEven"></rect><text transform="translate(73.91015625,101)" style="dominant-baseline: middle; font-size: 10.2px;" y="0" x="0" id="text-entity-WALLOWARAWDATA-55aedd13-a8b0-53f2-9b90-7f6000352d0c-attr-4-name" class="er entityLabel">data_source</text><rect height="22" width="68.91015625" y="112" x="0" class="er attributeBoxOdd"></rect><text transform="translate(5,123)" style="dominant-baseline: middle; font-size: 10.2px;" y="0" x="0" id="text-entity-WALLOWARAWDATA-55aedd13-a8b0-53f2-9b90-7f6000352d0c-attr-5-type" class="er entityLabel">string</text><rect height="22" width="75.79296875" y="112" x="68.91015625" class="er attributeBoxOdd"></rect><text transform="translate(73.91015625,123)" style="dominant-baseline: middle; font-size: 10.2px;" y="0" x="0" id="text-entity-WALLOWARAWDATA-55aedd13-a8b0-53f2-9b90-7f6000352d0c-attr-5-name" class="er entityLabel">data_type</text><rect height="22" width="68.91015625" y="134" x="0" class="er attributeBoxEven"></rect><text transform="translate(5,145)" style="dominant-baseline: middle; font-size: 10.2px;" y="0" x="0" id="text-entity-WALLOWARAWDATA-55aedd13-a8b0-53f2-9b90-7f6000352d0c-attr-6-type" class="er entityLabel">json</text><rect height="22" width="75.79296875" y="134" x="68.91015625" class="er attributeBoxEven"></rect><text transform="translate(73.91015625,145)" style="dominant-baseline: middle; font-size: 10.2px;" y="0" x="0" id="text-entity-WALLOWARAWDATA-55aedd13-a8b0-53f2-9b90-7f6000352d0c-attr-6-name" class="er entityLabel">metadata</text><rect height="22" width="68.91015625" y="156" x="0" class="er attributeBoxOdd"></rect><text transform="translate(5,167)" style="dominant-baseline: middle; font-size: 10.2px;" y="0" x="0" id="text-entity-WALLOWARAWDATA-55aedd13-a8b0-53f2-9b90-7f6000352d0c-attr-7-type" class="er entityLabel">string</text><rect height="22" width="75.79296875" y="156" x="68.91015625" class="er attributeBoxOdd"></rect><text transform="translate(73.91015625,167)" style="dominant-baseline: middle; font-size: 10.2px;" y="0" x="0" id="text-entity-WALLOWARAWDATA-55aedd13-a8b0-53f2-9b90-7f6000352d0c-attr-7-name" class="er entityLabel">data</text></g><g transform="translate(264.703125,75 )" id="entity-WALLOWASETTING-d9e44d6e-4e22-5eca-8af6-d696e60fa937"><rect height="68" width="134.2734375" y="0" x="0" class="er entityBox"></rect><text transform="translate(67.13671875,12)" style="dominant-baseline: middle; text-anchor: middle; font-size: 12px;" y="0" x="0" id="text-entity-WALLOWASETTING-d9e44d6e-4e22-5eca-8af6-d696e60fa937" class="er entityLabel">WALLOWA_SETTING</text><rect height="22" width="67.5234375" y="24" x="0" class="er attributeBoxOdd"></rect><text transform="translate(5,35)" style="dominant-baseline: middle; font-size: 10.2px;" y="0" x="0" id="text-entity-WALLOWASETTING-d9e44d6e-4e22-5eca-8af6-d696e60fa937-attr-1-type" class="er entityLabel">string</text><rect height="22" width="66.75" y="24" x="67.5234375" class="er attributeBoxOdd"></rect><text transform="translate(72.5234375,35)" style="dominant-baseline: middle; font-size: 10.2px;" y="0" x="0" id="text-entity-WALLOWASETTING-d9e44d6e-4e22-5eca-8af6-d696e60fa937-attr-1-name" class="er entityLabel">name</text><rect height="22" width="67.5234375" y="46" x="0" class="er attributeBoxEven"></rect><text transform="translate(5,57)" style="dominant-baseline: middle; font-size: 10.2px;" y="0" x="0" id="text-entity-WALLOWASETTING-d9e44d6e-4e22-5eca-8af6-d696e60fa937-attr-2-type" class="er entityLabel">string</text><rect height="22" width="66.75" y="46" x="67.5234375" class="er attributeBoxEven"></rect><text transform="translate(72.5234375,57)" style="dominant-baseline: middle; font-size: 10.2px;" y="0" x="0" id="text-entity-WALLOWASETTING-d9e44d6e-4e22-5eca-8af6-d696e60fa937-attr-2-name" class="er entityLabel">value</text></g></svg>